<?xml version="1.0" encoding="utf-8"?>
<!-- Generator: Adobe Illustrator 16.0.0, SVG Export Plug-In . SVG Version: 6.00 Build 0)  -->
<!DOCTYPE svg PUBLIC "-//W3C//DTD SVG 1.0//EN" "http://www.w3.org/TR/2001/REC-SVG-20010904/DTD/svg10.dtd">
<svg version="1.0" id="Layer_1" xmlns="http://www.w3.org/2000/svg" xmlns:xlink="http://www.w3.org/1999/xlink" x="0px" y="0px"
	 width="895.624px" height="668.843px" viewBox="0 0 895.624 668.843" enable-background="new 0 0 895.624 668.843"
	 xml:space="preserve">
<g>
	<rect x="107.945" y="0.001" fill="none" width="161.792" height="38.531"/>
	<path fill="#5E4779" d="M127.107,10.582c-1.394-1.012-3.176-1.518-5.346-1.518c-0.88,0-1.746,0.088-2.596,0.264
		c-0.852,0.176-1.606,0.469-2.266,0.88c-0.66,0.411-1.188,0.961-1.584,1.65c-0.396,0.689-0.594,1.548-0.594,2.574
		c0,0.968,0.286,1.753,0.858,2.354c0.572,0.602,1.334,1.093,2.288,1.474c0.953,0.382,2.031,0.697,3.234,0.946
		c1.203,0.25,2.427,0.521,3.674,0.814c1.247,0.293,2.471,0.638,3.674,1.034c1.203,0.396,2.281,0.931,3.234,1.606
		s1.716,1.525,2.288,2.552c0.572,1.027,0.858,2.318,0.858,3.872c0,1.672-0.374,3.102-1.122,4.29
		c-0.748,1.188-1.709,2.156-2.882,2.904c-1.173,0.748-2.486,1.292-3.938,1.628c-1.452,0.336-2.897,0.506-4.334,0.506
		c-1.76,0-3.425-0.22-4.994-0.66s-2.948-1.107-4.136-2.002c-1.188-0.895-2.127-2.039-2.816-3.432
		c-0.689-1.393-1.034-3.043-1.034-4.95h3.96c0,1.32,0.256,2.457,0.77,3.41c0.513,0.954,1.188,1.738,2.024,2.354
		c0.836,0.616,1.811,1.071,2.926,1.364c1.114,0.293,2.258,0.44,3.432,0.44c0.938,0,1.884-0.088,2.838-0.264
		c0.953-0.176,1.811-0.476,2.574-0.902c0.763-0.425,1.378-1.004,1.848-1.738c0.469-0.733,0.704-1.672,0.704-2.816
		c0-1.084-0.286-1.965-0.858-2.64c-0.572-0.675-1.335-1.225-2.288-1.65c-0.954-0.425-2.032-0.77-3.234-1.034
		c-1.203-0.264-2.428-0.535-3.674-0.814c-1.247-0.278-2.472-0.601-3.674-0.968c-1.203-0.366-2.281-0.85-3.234-1.452
		c-0.954-0.601-1.716-1.378-2.288-2.332c-0.572-0.953-0.858-2.148-0.858-3.586c0-1.584,0.322-2.955,0.968-4.114
		c0.645-1.158,1.503-2.112,2.574-2.86c1.07-0.748,2.288-1.305,3.652-1.672c1.364-0.367,2.764-0.55,4.202-0.55
		c1.613,0,3.109,0.191,4.488,0.572c1.378,0.381,2.588,0.983,3.63,1.804c1.041,0.822,1.863,1.855,2.464,3.102
		c0.601,1.247,0.931,2.736,0.99,4.466h-3.96C129.314,13.229,128.5,11.594,127.107,10.582z"/>
	<path fill="#5E4779" d="M144.245,6.292v31.416h-4.18V6.292H144.245z"/>
	<path fill="#5E4779" d="M170.205,37.334c-1.819,0.718-3.652,1.078-5.5,1.078c-2.347,0-4.444-0.433-6.292-1.298
		c-1.848-0.865-3.417-2.031-4.708-3.498c-1.291-1.467-2.273-3.153-2.948-5.06s-1.012-3.887-1.012-5.94
		c0-2.288,0.315-4.466,0.946-6.534c0.63-2.068,1.569-3.879,2.816-5.434c1.247-1.554,2.801-2.794,4.664-3.718
		c1.863-0.924,4.041-1.386,6.534-1.386c1.701,0,3.307,0.198,4.818,0.594c1.511,0.396,2.86,1.02,4.048,1.87
		c1.188,0.852,2.185,1.929,2.992,3.234c0.807,1.305,1.356,2.882,1.65,4.73h-4.18c-0.206-1.203-0.587-2.237-1.144-3.102
		c-0.558-0.865-1.247-1.577-2.068-2.134c-0.821-0.557-1.753-0.975-2.794-1.254c-1.042-0.278-2.149-0.418-3.322-0.418
		c-1.907,0-3.542,0.382-4.906,1.144c-1.364,0.763-2.479,1.768-3.344,3.014c-0.866,1.247-1.503,2.669-1.914,4.268
		c-0.411,1.599-0.616,3.234-0.616,4.906c0,1.643,0.235,3.22,0.704,4.73c0.469,1.511,1.159,2.846,2.068,4.004
		c0.909,1.159,2.031,2.083,3.366,2.772c1.334,0.69,2.882,1.034,4.642,1.034c1.643,0,3.094-0.264,4.356-0.792
		c1.261-0.528,2.324-1.254,3.19-2.178c0.865-0.924,1.518-2.009,1.958-3.256c0.44-1.247,0.63-2.588,0.572-4.026h-10.032v-3.52h13.772
		v16.544h-2.64l-1.1-3.916C173.548,35.435,172.023,36.616,170.205,37.334z"/>
	<path fill="#5E4779" d="M189.08,6.292l16.544,25.476h0.088V6.292h3.96v31.416h-4.576l-16.412-25.212h-0.088v25.212h-3.96V6.292
		H189.08z"/>
	<path fill="#5E4779" d="M233.036,6.292v31.416h-4.18V6.292H233.036z"/>
	<path fill="#5E4779" d="M244.475,6.292l16.544,25.476h0.088V6.292h3.96v31.416h-4.576l-16.412-25.212h-0.088v25.212h-3.96V6.292
		H244.475z"/>
</g>
<path fill="#FFFFFF" stroke="#C3C4C6" stroke-width="1.5925" d="M847.04,215.533c0,2.301-1.865,4.164-4.166,4.164H53.358
	c-2.301,0-4.166-1.863-4.166-4.164v-91.605c0-2.301,1.865-4.166,4.166-4.166h789.516c2.301,0,4.166,1.865,4.166,4.166V215.533z"/>
<path fill="#FFFFFF" stroke="#C3C4C6" stroke-width="1.5925" d="M848.263,373.49c0,2.301-1.865,4.166-4.164,4.166H54.581
	c-2.301,0-4.167-1.865-4.167-4.166v-91.604c0-2.303,1.865-4.166,4.167-4.166h789.518c2.299,0,4.164,1.863,4.164,4.166V373.49z"/>
<g>
	<rect x="91.403" y="155.619" fill-rule="evenodd" clip-rule="evenodd" fill="none" width="244.812" height="55.062"/>
	<path fill="#6D6E71" d="M93.741,166.732c1.781,1.237,3.971,2.919,6.568,5.047c-0.916,1.039-1.646,1.843-2.189,2.412
		c-2.598-2.375-4.676-4.156-6.234-5.344L93.741,166.732z M97.081,177.419c1.014,0.445,1.991,0.854,2.932,1.225
		c-1.361,4.354-2.783,9.104-4.268,14.25l-3.191-1.113C94.112,187.55,95.621,182.763,97.081,177.419z M95.151,157.121
		c2.399,1.806,4.54,3.612,6.42,5.418c-0.841,0.841-1.583,1.596-2.227,2.264c-1.336-1.41-3.365-3.29-6.086-5.641L95.151,157.121z
		 M101.052,188.107h12.469v-10.539h-9.648v-2.82h9.648v-8.98h-10.688v-2.82h11.838c-1.163-1.843-2.351-3.525-3.562-5.047
		l2.449-1.559c1.657,1.93,2.969,3.637,3.934,5.121l-2.319,1.484h12.45v2.82h-10.984v8.98h9.648v2.82h-9.648v10.539h12.023v2.82
		h-27.609V188.107z"/>
	<path fill="#6D6E71" d="M150.519,158.531h12.246v13.285h3.971v2.746h-3.971v14.213c0,2.573-1.188,3.859-3.562,3.859
		c-1.707,0-3.291-0.037-4.75-0.111c-0.074-0.718-0.235-1.633-0.482-2.746c1.806,0.173,3.253,0.26,4.342,0.26
		c1.088,0,1.633-0.569,1.633-1.707v-13.768h-6.605v2.189c0,6.605-1.398,12.11-4.193,16.514c-0.594-0.644-1.349-1.336-2.264-2.078
		c2.424-3.81,3.637-8.572,3.637-14.287v-2.338h-4.713v13.1c0,2.474-1.225,3.711-3.674,3.711c-1.336,0-2.623-0.037-3.859-0.111
		c-0.074-0.718-0.235-1.646-0.482-2.783c1.36,0.173,2.573,0.26,3.637,0.26c1.039,0,1.559-0.557,1.559-1.67v-12.506h-6.346v2.672
		c0,6.63-1.41,11.974-4.23,16.031c-0.594-0.718-1.336-1.41-2.227-2.078c2.399-3.686,3.6-8.25,3.6-13.693v-2.932h-3.637v-2.746h3.637
		v-13.285h12.023v13.285h4.713V158.531z M142.985,161.128h-6.346v10.688h6.346V161.128z M159.944,161.128h-6.605v10.688h6.605
		V161.128z"/>
	<path fill="#6D6E71" d="M168.22,178.162h16.736v-6.643h-14.139v-2.932h14.139v-6.698c-4.688,0.186-9.451,0.34-14.287,0.464
		c-0.148-1.039-0.334-2.053-0.557-3.043c12.642-0.198,22.896-0.643,30.764-1.336l0.482,3.043c-4.354,0.272-8.783,0.514-13.285,0.724
		v6.847h13.471v2.932h-13.471v6.643h16.662v2.932h-16.662v6.828c0,3.006-1.534,4.527-4.602,4.564c-1.559,0-3.724-0.013-6.494-0.037
		c-0.124-1.138-0.322-2.264-0.594-3.377c2.771,0.198,4.861,0.297,6.271,0.297c1.534,0,2.301-0.829,2.301-2.486v-5.789H168.22
		V178.162z"/>
	<path fill="#6D6E71" d="M205.886,179.869c2.771-4.131,4.744-8.584,5.919-13.359h-5.548v-2.523h5.789v-7.311h2.672v7.311h5.195
		v2.523h-5.195v6.16l1.484-1.484c1.905,1.732,3.401,3.142,4.49,4.23l-2.004,2.041c-1.521-1.682-2.845-3.08-3.971-4.193v19.594
		h-2.672v-19.891c-1.324,4.193-2.969,7.583-4.936,10.168C206.714,182.021,206.306,180.933,205.886,179.869z M225.442,161.871v12.283
		c0,8.857-2.214,15.276-6.643,19.26c-0.693-0.841-1.423-1.683-2.189-2.523c3.909-3.438,5.863-8.795,5.863-16.068V159.05h13.805
		v27.906c0,1.237,0.433,1.855,1.299,1.855h0.854c0.792,0,1.299-0.692,1.521-2.078c0.247-1.905,0.42-3.958,0.52-6.16
		c0.866,0.421,1.806,0.816,2.82,1.188c-0.223,2.449-0.445,4.453-0.668,6.012c-0.396,2.622-1.658,3.934-3.785,3.934h-1.967
		c-2.375,0-3.562-1.41-3.562-4.23v-25.605H225.442z"/>
	<path fill="#6D6E71" d="M250.491,181.947v-2.709l1.614-3.822h-8.071v-2.709h36.775v2.709h-25.643l-1.596,3.859h22.154
		c-0.297,2.87-0.582,5.22-0.854,7.051c-0.594,4.032-2.919,6.049-6.977,6.049c-2.845,0-5.888-0.05-9.129-0.148
		c-0.148-0.841-0.359-1.917-0.631-3.229c3.538,0.297,6.618,0.445,9.24,0.445c2.672,0,4.181-1.2,4.527-3.6
		c0.173-0.989,0.346-2.288,0.52-3.896H250.491z M249.786,158.345h25.197v12.246h-2.932v-1.521h-19.334v1.707h-2.932V158.345z
		 M272.052,161.017h-19.334v5.381h19.334V161.017z"/>
	<path fill="#6D6E71" d="M300.44,167.233c0.655,0,1.218,0.229,1.688,0.687c0.47,0.458,0.705,1.008,0.705,1.651
		c0,0.644-0.229,1.197-0.687,1.661c-0.458,0.464-1.027,0.696-1.707,0.696c-0.681,0-1.25-0.232-1.707-0.696
		c-0.458-0.464-0.687-1.017-0.687-1.661c0-0.643,0.235-1.193,0.705-1.651C299.222,167.462,299.785,167.233,300.44,167.233z
		 M300.44,183.951c0.655,0,1.218,0.229,1.688,0.687c0.47,0.458,0.705,1.015,0.705,1.67c0,0.668-0.235,1.228-0.705,1.679
		c-0.47,0.451-1.033,0.677-1.688,0.677c-0.656,0-1.219-0.226-1.688-0.677c-0.47-0.451-0.705-1.011-0.705-1.679
		c0-0.655,0.235-1.212,0.705-1.67C299.222,184.18,299.785,183.951,300.44,183.951z"/>
</g>
<g>
	<g>
		<path fill="#6D6E71" d="M93.045,337.51c3.5-0.989,6.939-2.189,10.316-3.6v-8.498h2.635v7.366
			c5.344-2.437,10.502-5.387,15.475-8.851l1.744,2.227c-5.183,3.476-10.632,6.519-16.347,9.129c0.52,0.495,1.28,0.742,2.282,0.742
			h7.125c1.484,0,2.375-0.421,2.672-1.262c0.321-0.816,0.569-2.14,0.742-3.971c0.816,0.347,1.756,0.705,2.82,1.076
			c-0.371,1.905-0.644,3.13-0.816,3.674c-0.52,2.028-2.091,3.043-4.713,3.043h-8.461c-2.14,0-3.612-0.698-4.416-2.097
			c-3.142,1.324-6.358,2.518-9.648,3.581C94.047,339.167,93.577,338.314,93.045,337.51z M94.641,319.401h15.901
			c-0.458-0.891-0.971-1.818-1.54-2.783l2.746-1.299c0.767,1.262,1.472,2.623,2.115,4.082h14.881v6.605h-3.006v-3.934H97.646v3.934
			h-3.006V319.401z M98.982,326.155l2.598,1.002c-1.163,2.697-2.425,5.171-3.785,7.422c-0.792-0.396-1.695-0.792-2.709-1.188
			C96.446,331.437,97.745,329.025,98.982,326.155z M122.732,351.946v-1.447H97.721v-9.76h2.82v7.088h9.611v-8.535h2.969v8.535h9.611
			v-7.088h2.82v11.207H122.732z M108.037,324.299l1.93-1.67c1.657,1.312,3.129,2.598,4.416,3.859l-2.152,2.004
			C110.82,326.959,109.422,325.561,108.037,324.299z M122.807,329.012l2.152-1.596c1.93,2.103,3.587,4.082,4.973,5.938l-2.449,1.818
			C126.171,333.243,124.612,331.189,122.807,329.012z"/>
		<path fill="#6D6E71" d="M131.119,336.137c3.018-4.181,5.201-8.956,6.55-14.324h-5.474v-2.746h13.879v2.746h-5.548
			c-0.779,3.105-1.769,6-2.969,8.684h7.181v20.113h-2.635v-2.561h-4.639v3.043h-2.635v-15.456c-0.656,1.052-1.349,2.06-2.078,3.024
			C132.381,337.968,131.836,337.126,131.119,336.137z M142.104,333.02h-4.639v12.58h4.639V333.02z M146.223,340.368h15.66v2.672
			h-15.66V340.368z M152.197,321.813l-0.965,10.873h8.739l1.243-12.209h-13.693v-2.672h16.811l-1.559,14.881h3.934
			c-0.198,5.022-0.396,9.376-0.594,13.062c-0.223,3.687-1.979,5.529-5.27,5.529c-1.658,0-3.513-0.037-5.566-0.111
			c-0.148-0.915-0.322-1.942-0.52-3.08c2.004,0.223,3.81,0.334,5.418,0.334c1.905,0,2.932-1.052,3.08-3.154
			c0.198-2.746,0.346-6.049,0.445-9.908h-15.475l1.15-13.545H152.197z"/>
		<path fill="#6D6E71" d="M187.711,326.173c0.655,0,1.218,0.229,1.688,0.687c0.47,0.458,0.705,1.008,0.705,1.651
			c0,0.644-0.229,1.197-0.687,1.661c-0.458,0.464-1.027,0.696-1.707,0.696c-0.681,0-1.25-0.232-1.707-0.696
			c-0.458-0.464-0.687-1.017-0.687-1.661c0-0.643,0.235-1.193,0.705-1.651C186.492,326.402,187.055,326.173,187.711,326.173z
			 M187.711,342.891c0.655,0,1.218,0.229,1.688,0.687c0.47,0.458,0.705,1.015,0.705,1.67c0,0.668-0.235,1.229-0.705,1.68
			c-0.47,0.451-1.033,0.677-1.688,0.677c-0.656,0-1.219-0.226-1.688-0.677c-0.47-0.451-0.705-1.012-0.705-1.68
			c0-0.655,0.235-1.212,0.705-1.67C186.492,343.121,187.055,342.891,187.711,342.891z"/>
	</g>
</g>
<path fill="none" stroke="#C3C4C6" stroke-width="1.1202" d="M97.905,19.976H31.284c-16.968,0-30.724,12.261-30.724,27.385v593.535
	c0,15.124,13.756,27.387,30.724,27.387h833.055c16.969,0,30.725-12.263,30.725-27.387V47.361c0-15.125-13.756-27.385-30.725-27.385
	H278.147"/>
<g>
	<g>
		<path fill="#727276" d="M224.429,412.06l1.996,0.93c-0.738,1.249-1.486,2.447-2.242,3.596v12.209h-2.078v-9.242
			c-0.757,1.012-1.522,1.979-2.297,2.898c-0.438-0.51-0.948-1.057-1.531-1.641C220.683,418.222,222.733,415.305,224.429,412.06z
			 M221.421,430.052l1.996,0.684c-0.875,2.425-1.769,4.576-2.68,6.453c-0.583-0.256-1.258-0.52-2.023-0.793
			C219.862,434.3,220.765,432.185,221.421,430.052z M225.003,430.271h2.078v4.512c0,1.148,0.62,1.723,1.859,1.723h5.906
			c1.349,0,2.142-0.529,2.379-1.586c0.237-0.893,0.428-1.941,0.574-3.145c0.656,0.273,1.358,0.538,2.105,0.793
			c-0.237,1.312-0.456,2.352-0.656,3.117c-0.438,1.841-1.75,2.762-3.938,2.762h-6.781c-2.352,0-3.527-1.131-3.527-3.391V430.271z
			 M230.964,420.865l1.641,1.23c-1.55,1.787-3.336,3.637-5.359,5.551c-0.419-0.438-0.93-0.92-1.531-1.449
			C227.537,424.611,229.287,422.833,230.964,420.865z M225.851,420.208c2.151-2.297,3.91-4.949,5.277-7.957l2.133,0.492
			c-0.401,0.857-0.82,1.678-1.258,2.461h12.441v1.777l-1.887,3.938c-0.675-0.346-1.322-0.665-1.941-0.957l1.422-2.898h-11.129
			c-1.021,1.641-2.124,3.117-3.309,4.43C227.09,421.111,226.507,420.683,225.851,420.208z M229.378,430.189l1.395-1.312
			c1.513,1.186,2.926,2.425,4.238,3.719l-1.586,1.504C232.167,432.714,230.818,431.411,229.378,430.189z M235.065,418.677h2.078
			v6.59c0,2.151-1.066,3.227-3.199,3.227c-0.675,0-1.586-0.009-2.734-0.027c-0.091-0.619-0.228-1.357-0.41-2.215
			c0.984,0.128,1.841,0.191,2.57,0.191c1.13,0,1.695-0.61,1.695-1.832V418.677z M238.429,422.779l1.395-1.449
			c1.823,1.404,3.673,2.963,5.551,4.676l-1.531,1.695C242.001,425.86,240.197,424.219,238.429,422.779z M239.495,430.298
			l1.641-1.176c1.713,1.933,3.245,3.801,4.594,5.605l-1.75,1.367C242.503,434.017,241.008,432.085,239.495,430.298z"/>
		<path fill="#727276" d="M246.495,414.521h27.016v2.078h-4.539v18.512c0,2.461-1.194,3.7-3.582,3.719
			c-1.714,0-3.382-0.01-5.004-0.027c-0.091-0.839-0.237-1.668-0.438-2.488c2.06,0.146,3.627,0.219,4.703,0.219
			c1.349,0,2.023-0.729,2.023-2.188v-17.746h-20.18V414.521z M249.53,420.646h12.059v10.801h-9.898v1.941h-2.16V420.646z
			 M259.429,422.587h-7.738v6.918h7.738V422.587z"/>
		<path fill="#727276" d="M286.581,428.083c0.055,1.186,0.127,2.051,0.219,2.598c-4.375,2.753-7.101,4.484-8.176,5.195
			c-0.602,0.419-1.176,0.875-1.723,1.367l-1.559-2.16c0.856-0.766,1.276-1.686,1.258-2.762v-19.004h2.242v19.551
			C280.848,431.666,283.427,430.071,286.581,428.083z M295.058,412.935h2.242v4.922c0,5.041-0.647,9.042-1.941,12.004
			c2.26,2.334,4.393,4.631,6.398,6.891l-1.887,1.723c-1.869-2.315-3.732-4.516-5.592-6.604c-2.105,3.199-5.273,5.701-9.502,7.506
			c-0.419-0.565-0.912-1.194-1.477-1.887c4.594-2.114,7.684-4.566,9.27-7.355c1.695-2.734,2.524-6.845,2.488-12.332V412.935z
			 M285.46,412.306c1.221,1.933,2.579,4.248,4.074,6.945l-2.133,1.203c-1.422-2.807-2.716-5.177-3.883-7.109L285.46,412.306z"/>
		<path fill="#727276" d="M302.386,425.568c2.442-3.7,4.338-8.121,5.688-13.262l2.023,0.602c-0.748,2.452-1.568,4.727-2.461,6.822
			v19.537h-1.941v-15.504c-0.784,1.44-1.613,2.771-2.488,3.992C302.933,426.99,302.659,426.261,302.386,425.568z M311.901,430.107
			l1.832-1.012c0.829,1.404,1.882,2.621,3.158,3.65c0.656-0.947,1.107-2.465,1.354-4.553h-7.137v-7.52h7.383v-2.707h-8.75v-1.859
			h8.75v-3.691h2.105v3.691h8.832v1.859h-8.832v2.707h7.355v8.695h-2.078v-1.176h-5.51c-0.283,2.543-0.834,4.457-1.654,5.742
			c-0.009,0.019-0.019,0.032-0.027,0.041c2.825,1.649,6.48,2.611,10.965,2.885c-0.547,0.783-1.048,1.54-1.504,2.27
			c-4.402-0.538-8.039-1.723-10.91-3.555c-1.595,1.412-3.938,2.67-7.027,3.773c-0.419-0.584-0.894-1.194-1.422-1.832
			c2.962-0.93,5.186-2.005,6.672-3.227C314.034,433.097,312.849,431.703,311.901,430.107z M318.409,426.361
			c0.055-0.865,0.082-2.15,0.082-3.855h-5.305v3.855H318.409z M320.515,426.361h5.359v-3.855h-5.277
			C320.597,423.216,320.569,424.501,320.515,426.361z"/>
		<path fill="#727276" d="M343.483,438.775v-8.695h-7.957c-0.31,3.792-1.413,6.936-3.309,9.434c-0.474-0.602-1.012-1.23-1.613-1.887
			c1.185-1.678,1.987-3.536,2.406-5.578c0.401-1.969,0.602-4.758,0.602-8.367v-9.762h22.285v21.738c0,2.169-1.03,3.254-3.09,3.254
			c-1.258,0-2.671-0.027-4.238-0.082c-0.091-0.602-0.228-1.358-0.41-2.27c1.586,0.109,2.871,0.164,3.855,0.164
			c1.13,0,1.695-0.538,1.695-1.613v-5.031h-8.039v8.695H343.483z M335.677,428.111h7.807v-5.113H335.8
			C335.854,424.766,335.813,426.47,335.677,428.111z M335.8,415.943v5.086h7.684v-5.086H335.8z M353.71,415.943h-8.039v5.086h8.039
			V415.943z M345.671,428.111h8.039v-5.113h-8.039V428.111z"/>
		<path fill="#727276" d="M360.327,417.474h22.422v2.051c-4.876,5.113-10.601,9.68-17.172,13.699
			c1.823,1.769,4.457,2.725,7.902,2.871c4.338,0.072,8.376,0.022,12.113-0.15c-0.438,1.057-0.729,1.836-0.875,2.338
			c-1.878,0-5.925-0.037-12.141-0.109c-3.847-0.146-6.891-1.468-9.133-3.965c-0.183-0.219-0.383-0.228-0.602-0.027
			c-1.24,1.148-2.388,2.36-3.445,3.637l-1.203-2.27c1.403-1.367,2.561-2.388,3.473-3.062c0.62-0.438,1.221-0.629,1.805-0.574
			c6.271-3.828,11.63-7.966,16.078-12.414h-19.223V417.474z M369.569,413.208l2.023-1.012c0.747,1.076,1.586,2.389,2.516,3.938
			l-2.133,1.148C371.21,415.898,370.408,414.54,369.569,413.208z"/>
		<path fill="#727276" d="M386.632,416.435h8.832c-0.602-0.947-1.367-1.978-2.297-3.09l1.723-1.176
			c1.13,1.258,2.042,2.379,2.734,3.363l-1.354,0.902h7.479l-1.094-0.602c0.966-1.185,1.805-2.424,2.516-3.719l2.078,1.203
			c-0.839,1.148-1.682,2.188-2.529,3.117h8.654v1.914h-26.742V416.435z M390.515,439.24h-2.078v-18.211h11.977v15.285
			c0,1.786-0.921,2.661-2.762,2.625c-0.766,0-1.814-0.019-3.145-0.055c-0.109-0.711-0.246-1.386-0.41-2.023
			c1.112,0.091,2.142,0.137,3.09,0.137c0.766,0.018,1.148-0.355,1.148-1.121v-3.473h-7.82V439.24z M398.335,422.888h-7.82v2.926
			h7.82V422.888z M390.515,430.572h7.82v-2.926h-7.82V430.572z M403.667,421.466h2.078v12.305h-2.078V421.466z M409.3,420.154h2.133
			v15.285c0,2.242-1.058,3.372-3.172,3.391c-0.966,0.018-2.169,0.009-3.609-0.027c-0.091-0.748-0.219-1.514-0.383-2.297
			c1.349,0.146,2.442,0.219,3.281,0.219c1.167,0,1.75-0.593,1.75-1.777V420.154z"/>
		<path fill="#727276" d="M414.222,433.361c2.552-1.467,4.689-3.5,6.412-6.098c-0.255-0.638-0.547-1.267-0.875-1.887
			c-1.386,1.085-2.849,2.078-4.389,2.98c-0.328-0.455-0.748-1.012-1.258-1.668c1.677-0.848,3.227-1.832,4.648-2.953
			c-0.802-1.176-1.769-2.314-2.898-3.418l1.367-1.258c1.176,1.085,2.192,2.215,3.049,3.391c1.03-0.938,1.982-1.959,2.857-3.062
			l1.695,1.148c-1.094,1.258-2.261,2.434-3.5,3.527c1.741,2.944,2.543,6.152,2.406,9.625c-0.073,3.354-1.568,5.031-4.484,5.031
			c-0.766,0-1.687-0.019-2.762-0.055c-0.091-0.639-0.219-1.377-0.383-2.215c1.112,0.146,2.114,0.219,3.008,0.219
			c1.641,0,2.497-1.003,2.57-3.008c0.055-1.412-0.068-2.789-0.369-4.129c-1.604,2.143-3.541,3.956-5.811,5.441
			C415.16,434.519,414.732,433.981,414.222,433.361z M414.632,415.259h7.52v-3.008h2.133v3.008h7.492v-3.008h2.133v3.008h7.492
			v1.941h-7.492v1.832h-2.133v-1.832h-7.492v1.805h-2.133v-1.805h-7.52V415.259z M424.558,424.83h6.631
			c0.045-1.357,0.059-3.025,0.041-5.004h2.133c0,1.577-0.023,3.245-0.068,5.004h7.779v1.941h-7.615
			c1.157,5.205,3.823,8.723,7.998,10.555c-0.583,0.638-1.158,1.267-1.723,1.887c-3.591-1.979-6.029-5.09-7.314-9.338
			c-1.039,3.938-3.605,7.113-7.697,9.529c-0.419-0.602-0.884-1.203-1.395-1.805c4.621-2.479,7.2-6.088,7.738-10.828h-6.508V424.83z
			 M434.894,421.056l1.094-1.395c1.477,0.912,2.816,1.805,4.02,2.68l-1.23,1.586C437.755,423.107,436.461,422.15,434.894,421.056z"
			/>
		<path fill="#727276" d="M442.358,432.759c0.802-0.1,1.622-0.205,2.461-0.314v-16.912h-2.051v-1.914h13.398v0.957h11.949v1.723
			c-1.058,6.727-2.616,11.681-4.676,14.861c1.723,2.434,3.791,4.325,6.207,5.674c-0.511,0.528-1.066,1.203-1.668,2.023
			c-1.951-1.422-3.874-3.408-5.77-5.961c-1.842,2.416-4.029,4.512-6.562,6.289c-0.52-0.684-0.984-1.258-1.395-1.723v1.695h-2.051
			v-5.92c-3.327,0.52-6.508,1.035-9.543,1.545L442.358,432.759z M446.87,419.716h5.332v-4.184h-5.332V419.716z M446.87,425.65h5.332
			v-4.184h-5.332V425.65z M452.202,431.392V427.4h-5.332v4.771C448.574,431.925,450.352,431.666,452.202,431.392z M455.948,416.435
			v-0.902h-1.695v15.545c1.021-0.164,2.06-0.332,3.117-0.506c-0.055,0.748-0.082,1.377-0.082,1.887
			c-1.03,0.155-2.042,0.311-3.035,0.465v4.402c2.552-1.495,4.803-3.55,6.754-6.166c-2.105-3.354-3.459-8.262-4.061-14.725H455.948z
			 M466.065,416.435h-7.137c0.428,5.332,1.54,9.625,3.336,12.879C463.851,426.644,465.117,422.351,466.065,416.435z"/>
		<path fill="#727276" d="M471.534,416.818h2.762c0.674-1.658,1.23-3.172,1.668-4.539l2.297,0.656
			c-0.574,1.395-1.131,2.689-1.668,3.883h5.469v21.766h-2.188v-2.133h-6.152v2.324h-2.188V416.818z M479.874,418.869h-6.152v6.645
			h6.152V418.869z M473.722,434.4h6.152v-6.918h-6.152V434.4z M482.472,422.423c1.713-2.716,3.162-6.098,4.348-10.145l2.297,0.574
			c-0.465,1.377-0.939,2.671-1.422,3.883h8.805c-0.219,9.37-0.401,15.268-0.547,17.691c-0.128,2.861-1.632,4.293-4.512,4.293
			c-1.659,0-3.346-0.055-5.059-0.164c-0.109-0.912-0.256-1.723-0.438-2.434h0.082c1.822,0.255,3.49,0.383,5.004,0.383
			c1.658,0,2.552-0.875,2.68-2.625c0.2-2.716,0.346-7.747,0.438-15.094h-7.328c-0.793,1.76-1.613,3.309-2.461,4.648
			C483.866,423.089,483.237,422.751,482.472,422.423z M484.878,424.283l1.668-1.23c2.023,2.389,3.637,4.457,4.84,6.207l-2.023,1.422
			C488.067,428.567,486.573,426.434,484.878,424.283z"/>
		<path fill="#727276" d="M508.202,427.4c1.148,2.479,2.205,4.94,3.172,7.383c-0.803,0.347-1.486,0.647-2.051,0.902
			c-0.128-0.346-0.256-0.692-0.383-1.039c-3.473,0.328-6.636,0.656-9.488,0.984l-0.957-2.215c0.802-0.455,1.449-1.193,1.941-2.215
			c0.893-1.795,1.822-4.074,2.789-6.836h-4.621v-2.023h13.207v2.023h-6.289c-1.559,3.883-2.908,6.9-4.047,9.051
			c2.096-0.154,4.352-0.359,6.768-0.615c-0.611-1.549-1.254-3.066-1.928-4.553L508.202,427.4z M499.753,414.658h10.965v2.023
			h-10.965V414.658z M510.991,417.966h4.074c0.027-1.832,0.036-3.709,0.027-5.633h2.242c-0.01,1.905-0.032,3.783-0.068,5.633h7.369
			c-0.128,6.891-0.311,12.441-0.547,16.652c-0.201,2.57-1.395,3.873-3.582,3.91c-1.131,0-2.361-0.027-3.691-0.082
			c-0.128-0.766-0.273-1.568-0.438-2.406c1.258,0.164,2.406,0.255,3.445,0.273c1.349,0,2.051-0.756,2.105-2.27
			c0.273-4.521,0.438-9.188,0.492-14h-5.195c-0.019,0.784-0.037,1.559-0.055,2.324c-0.092,7.183-2.261,12.852-6.508,17.008
			c-0.511-0.62-1.058-1.24-1.641-1.859c3.81-3.391,5.797-8.458,5.961-15.203c0.018-0.747,0.036-1.504,0.055-2.27h-4.047V417.966z"/>
		<path fill="#727276" d="M527.397,416.162h11.211c0.246-1.13,0.364-2.434,0.355-3.91h2.051c0.018,1.422-0.078,2.726-0.287,3.91
			h11.826v1.941h-11.143c2.598,3.746,6.539,6.299,11.826,7.656c-0.529,0.602-1.039,1.304-1.531,2.105
			c-5.369-1.85-9.32-4.785-11.854-8.805c-0.574,1.285-1.427,2.479-2.557,3.582c1.431,0.984,2.816,1.996,4.156,3.035l-1.367,1.613
			c-1.158-1.029-2.566-2.174-4.225-3.432c-2.051,1.568-4.781,2.985-8.189,4.252c-0.273-0.638-0.675-1.33-1.203-2.078
			c6.234-2.005,10.08-4.648,11.539-7.93h-10.609V416.162z M529.53,429.232l2.051,0.656c-0.711,2.261-1.613,4.585-2.707,6.973
			c-0.584-0.273-1.268-0.538-2.051-0.793C527.917,434.008,528.819,431.73,529.53,429.232z M533.468,428.794h2.133v5.879
			c0,1.094,0.547,1.641,1.641,1.641h5.195c1.203,0,1.923-0.447,2.16-1.34c0.219-0.856,0.4-2.16,0.547-3.91
			c0.51,0.219,1.212,0.483,2.105,0.793c-0.292,2.097-0.52,3.4-0.684,3.91c-0.42,1.658-1.641,2.488-3.664,2.488h-6.043
			c-2.261,0-3.391-1.148-3.391-3.445V428.794z M537.323,428.986l1.395-1.34c1.477,1.186,2.844,2.379,4.102,3.582l-1.586,1.531
			C540.085,431.539,538.781,430.281,537.323,428.986z M547.386,429.998l1.613-1.23c1.513,1.695,3.035,3.51,4.566,5.441l-1.832,1.395
			C550.384,433.708,548.935,431.839,547.386,429.998z"/>
		<path fill="#727276" d="M554.249,428.466c2.579-0.729,5.113-1.613,7.602-2.652v-6.262h1.941v5.428
			c3.938-1.795,7.738-3.969,11.402-6.521l1.285,1.641c-3.819,2.562-7.834,4.804-12.045,6.727c0.383,0.365,0.943,0.547,1.682,0.547
			h5.25c1.094,0,1.75-0.31,1.969-0.93c0.236-0.602,0.419-1.576,0.547-2.926c0.602,0.256,1.294,0.52,2.078,0.793
			c-0.273,1.404-0.475,2.307-0.602,2.707c-0.383,1.495-1.541,2.242-3.473,2.242h-6.234c-1.577,0-2.662-0.515-3.254-1.545
			c-2.315,0.976-4.686,1.855-7.109,2.639C554.987,429.688,554.641,429.059,554.249,428.466z M555.425,415.123h11.717
			c-0.338-0.656-0.716-1.34-1.135-2.051l2.023-0.957c0.564,0.93,1.084,1.933,1.559,3.008h10.965v4.867h-2.215v-2.898H557.64v2.898
			h-2.215V415.123z M558.624,420.099l1.914,0.738c-0.857,1.987-1.787,3.811-2.789,5.469c-0.584-0.291-1.249-0.583-1.996-0.875
			C556.755,423.992,557.712,422.214,558.624,420.099z M576.124,439.103v-1.066h-18.43v-7.191h2.078v5.223h7.082v-6.289h2.188v6.289
			h7.082v-5.223h2.078v8.258H576.124z M565.296,418.732l1.422-1.23c1.221,0.967,2.306,1.914,3.254,2.844l-1.586,1.477
			C567.347,420.692,566.316,419.662,565.296,418.732z M576.179,422.205l1.586-1.176c1.422,1.55,2.643,3.008,3.664,4.375l-1.805,1.34
			C578.657,425.322,577.509,423.809,576.179,422.205z"/>
		<path fill="#727276" d="M582.304,427.455c2.224-3.08,3.832-6.599,4.826-10.555h-4.033v-2.023h10.227v2.023h-4.088
			c-0.574,2.288-1.304,4.421-2.188,6.398h5.291v14.82h-1.941v-1.887h-3.418v2.242h-1.941v-11.389
			c-0.483,0.775-0.994,1.518-1.531,2.229C583.233,428.804,582.832,428.184,582.304,427.455z M590.397,425.158h-3.418v9.27h3.418
			V425.158z M593.433,430.572h11.539v1.969h-11.539V430.572z M597.835,416.9l-0.711,8.012h6.439l0.916-8.996h-10.09v-1.969h12.387
			l-1.148,10.965h2.898c-0.146,3.701-0.292,6.909-0.438,9.625c-0.164,2.716-1.459,4.074-3.883,4.074
			c-1.222,0-2.589-0.027-4.102-0.082c-0.109-0.675-0.237-1.432-0.383-2.27c1.477,0.164,2.807,0.246,3.992,0.246
			c1.403,0,2.16-0.775,2.27-2.324c0.146-2.023,0.255-4.457,0.328-7.301h-11.402l0.848-9.98H597.835z"/>
		<path fill="#727276" d="M611.835,415.916v-1.859h10.828v1.887c-2.461,4.193-6.271,7.721-11.43,10.582
			c-0.347-0.619-0.729-1.258-1.148-1.914c1.914-0.984,3.463-1.932,4.648-2.844c-1.148-1.185-2.324-2.352-3.527-3.5l1.285-1.285
			c1.367,1.24,2.625,2.416,3.773,3.527c1.513-1.33,2.807-2.861,3.883-4.594H611.835z M610.632,436.533h9.16
			c-0.656-0.639-1.613-1.521-2.871-2.652l1.312-1.312c1.111,0.912,2.232,1.887,3.363,2.926l-1.121,1.039h6.562l-0.93-0.93
			c1.166-1.057,2.205-2.096,3.117-3.117l1.668,1.367c-0.857,0.857-1.814,1.75-2.871,2.68h9.352v1.859h-26.742V436.533z
			 M614.87,424.912h18.02v8.422h-2.078v-0.984h-13.863v0.984h-2.078V424.912z M630.812,426.716h-13.863v3.828h13.863V426.716z
			 M619.163,420.728h9.27v1.805h-9.27V420.728z M626.081,412.607c0.419,1.131,0.884,2.17,1.395,3.117
			c2.005-1.094,3.755-2.15,5.25-3.172l1.34,1.723c-1.714,1.021-3.564,2.061-5.551,3.117c0.492,0.729,1.029,1.395,1.613,1.996
			c1.914-1.057,3.691-2.133,5.332-3.227l1.367,1.75c-1.514,0.93-3.218,1.905-5.113,2.926c1.75,1.367,3.791,2.279,6.125,2.734
			c-0.529,0.729-1.03,1.468-1.504,2.215c-5.797-2.005-9.854-6.143-12.168-12.414L626.081,412.607z"/>
		<path fill="#727276" d="M638.358,434.509c3.572-1.111,7.446-2.434,11.621-3.965c0.146,0.803,0.282,1.495,0.41,2.078
			c-3.628,1.258-7.355,2.58-11.184,3.965L638.358,434.509z M661.819,426.06l1.586,1.805c-1.55,1.021-3.473,2.225-5.77,3.609
			c2.133,1.659,4.794,2.854,7.984,3.582c-0.565,0.783-1.066,1.531-1.504,2.242c-4.959-1.514-8.604-4.083-10.938-7.711v5.934
			c0,2.205-1.131,3.309-3.391,3.309c-1.076,0-2.352-0.019-3.828-0.055c-0.109-0.675-0.237-1.459-0.383-2.352
			c1.312,0.146,2.488,0.228,3.527,0.246c1.294,0,1.941-0.584,1.941-1.75v-9.789h-12.305v-1.832h20.398v-2.926h-16.953v-1.75h16.953
			v-2.898h-17.473v-1.832h19.523v9.406h4.238v1.832h-12.25v0.629c0.747,1.641,1.713,3.081,2.898,4.32
			C658.191,428.712,660.105,427.373,661.819,426.06z M642.159,425.869c1.75,1.058,3.527,2.206,5.332,3.445l-1.34,1.805
			c-1.659-1.258-3.409-2.479-5.25-3.664L642.159,425.869z"/>
	</g>
</g>
<g>
</g>
<g>
</g>
<g>
</g>
<g>
</g>
<g>
</g>
<g>
</g>
</svg>
